<svg width="256" height="256" viewBox="0 0 256 256" fill="none" xmlns="http://www.w3.org/2000/svg">
<rect width="256" height="256" fill="url(#paint0_linear_2490_6536)"/>
<g opacity="0.5" filter="url(#filter0_d_2490_6536)">
<path d="M205.654 140.19L204.14 156.788C203.095 168.246 192.921 177.535 181.415 177.535C182.042 170.66 176.954 165.087 170.05 165.087C163.146 165.087 157.042 170.66 156.415 177.535H110.582C111.209 170.66 106.12 165.087 99.2167 165.087C92.3131 165.087 86.2085 170.66 85.5816 177.535H73.0816C59.2745 177.535 49.098 166.388 50.3518 152.638L51.1085 144.339C51.4652 140.427 51.6436 138.471 52.9748 137.256C54.306 136.04 56.2702 136.04 60.1986 136.04H147.699C154.602 136.04 160.707 130.467 161.334 123.592L165.496 77.9482C165.628 76.4932 165.505 75.0966 165.163 73.7987C172.764 73.7987 176.564 73.7987 179.706 75.2758C180.642 75.7155 181.524 76.2478 182.34 76.8652C185.083 78.9395 186.7 82.2088 189.934 88.7474L203.333 115.84C205.239 119.693 206.192 121.62 206.575 123.748C206.959 125.875 206.755 128.106 206.349 132.566L205.654 140.19Z" fill="#015AA2"/>
</g>
<g filter="url(#filter1_d_2490_6536)">
<path fill-rule="evenodd" clip-rule="evenodd" d="M65.1219 69.6495H153.752C157.374 69.6495 160.256 71.9529 161.108 75.1818C161.335 76.0417 161.418 76.971 161.329 77.9484L157.167 123.592C156.749 128.176 152.679 131.891 148.077 131.891H60.5766L60.3499 131.891C58.5829 131.891 56.8658 131.891 55.4322 132.08C53.816 132.294 51.9465 132.815 50.2957 134.322C48.6449 135.829 47.9564 137.644 47.5968 139.234C47.2778 140.644 47.1222 142.354 46.9621 144.114L46.9415 144.34L46.1848 152.639C44.722 168.68 56.5946 181.685 72.7029 181.685H81.5613C82.7588 188.843 88.8019 194.133 96.5678 194.133C104.334 194.133 111.342 188.843 113.845 181.685H152.395C153.592 188.843 159.635 194.133 167.401 194.133C175.265 194.133 182.352 188.709 184.77 181.413C196.981 179.628 207.167 169.283 208.306 156.788L210.515 132.567L210.562 132.053C210.925 128.086 211.177 125.333 210.696 122.665C210.215 119.997 209.038 117.619 207.342 114.193L207.122 113.75L193.723 86.6569L193.341 85.8836C190.483 80.0971 188.501 76.0842 185.061 73.4826C184.041 72.7108 182.938 72.0455 181.769 71.496C178.179 69.8083 173.989 69.66 168.188 69.6496C165.76 64.6918 160.682 61.3506 154.509 61.3506H65.8785C63.0681 61.3506 60.6086 62.0656 58.5722 63.4232C55.0019 65.8034 53.0071 70.1839 52.9831 74.1911C52.9765 76.4286 54.9003 78.1691 57.1668 77.9659C59.4762 77.7587 61.3485 75.7427 61.3506 73.4621L61.3506 73.4727L61.3506 73.4845L61.3504 73.5012C61.3504 73.5012 61.3523 73.4516 61.3564 73.3937C61.5253 71.0296 62.7571 69.6495 65.1219 69.6495ZM169.66 77.9748L165.5 123.592C164.664 132.759 156.525 140.19 147.32 140.19H59.8199C57.7379 140.19 56.5948 140.199 55.7926 140.305L55.7619 140.309L55.755 140.339C55.5765 141.129 55.4639 142.266 55.2748 144.34L54.5181 152.639C53.4733 164.097 61.9537 173.386 73.4596 173.386H82.3181C84.821 166.227 91.8287 160.937 99.5947 160.937C107.361 160.937 113.404 166.227 114.601 173.386H153.151C155.654 166.227 162.662 160.937 170.428 160.937C178.058 160.937 184.024 166.043 185.367 173.011C193.019 171.394 199.248 164.745 199.973 156.788L201.108 144.34H184.441C177.538 144.34 172.45 138.766 173.077 131.891L175.347 106.995C175.765 102.411 179.834 98.6957 184.437 98.6957H190.03L186.144 90.8385C182.745 83.9656 181.513 81.6809 179.618 80.2483C179.006 79.7852 178.344 79.386 177.643 79.0563C175.99 78.2792 174.03 78.0432 169.66 77.9748ZM194.134 106.995H183.68L181.41 131.891C181.201 134.183 182.897 136.041 185.198 136.041H201.865L202.182 132.567C202.608 127.891 202.72 126.305 202.454 124.831C202.188 123.357 201.54 121.97 199.543 117.931L194.134 106.995Z" fill="#015AA2"/>
</g>
<g filter="url(#filter2_d_2490_6536)">
<path d="M116.527 84.7283C116.14 85.4909 116.052 86.4576 115.876 88.391L115.516 92.3412C115.507 92.4351 115.503 92.4821 115.471 92.5112C115.439 92.5404 115.392 92.5404 115.298 92.5404H111.331C109.39 92.5404 108.419 92.5404 107.624 92.8563C106.565 93.2774 105.68 94.0852 105.165 95.1019C104.778 95.8645 104.69 96.8312 104.513 98.7646C104.337 100.698 104.249 101.665 104.497 102.427C104.827 103.444 105.564 104.252 106.547 104.673C107.284 104.989 108.254 104.989 110.196 104.989H114.163C114.257 104.989 114.304 104.989 114.331 105.018C114.357 105.047 114.353 105.094 114.344 105.188L113.984 109.138C113.808 111.072 113.72 112.038 113.967 112.801C114.298 113.818 115.035 114.625 116.018 115.047C116.755 115.362 117.725 115.362 119.667 115.362C121.608 115.362 122.579 115.362 123.373 115.047C124.433 114.625 125.317 113.818 125.833 112.801C126.22 112.038 126.308 111.072 126.484 109.138L126.844 105.188C126.853 105.094 126.857 105.047 126.889 105.018C126.921 104.989 126.968 104.989 127.063 104.989H131.029C132.971 104.989 133.941 104.989 134.736 104.673C135.795 104.252 136.68 103.444 137.196 102.427C137.582 101.665 137.67 100.698 137.847 98.7646C138.023 96.8312 138.111 95.8645 137.864 95.1019C137.533 94.0852 136.796 93.2774 135.813 92.8563C135.076 92.5404 134.106 92.5404 132.164 92.5404H128.198C128.103 92.5404 128.056 92.5404 128.03 92.5112C128.003 92.4821 128.007 92.4351 128.016 92.3412L128.376 88.391C128.552 86.4576 128.64 85.4909 128.393 84.7283C128.063 83.7116 127.325 82.9038 126.343 82.4826C125.606 82.1668 124.635 82.1668 122.694 82.1668C120.752 82.1668 119.781 82.1668 118.987 82.4826C117.928 82.9038 117.043 83.7116 116.527 84.7283Z" fill="#015AA2"/>
</g>
<g filter="url(#filter3_d_2490_6536)">
<path opacity="0.5" fill-rule="evenodd" clip-rule="evenodd" d="M44.6665 119.667C44.6665 117.366 46.532 115.5 48.8332 115.5H65.4998C67.801 115.5 69.6665 117.366 69.6665 119.667C69.6665 121.968 67.801 123.833 65.4998 123.833H48.8332C46.532 123.833 44.6665 121.968 44.6665 119.667Z" fill="#015AA2"/>
<path fill-rule="evenodd" clip-rule="evenodd" d="M44.6665 103C44.6665 100.699 46.532 98.8333 48.8332 98.8333H73.8332C76.1344 98.8333 77.9998 100.699 77.9998 103C77.9998 105.301 76.1344 107.167 73.8332 107.167H48.8332C46.532 107.167 44.6665 105.301 44.6665 103Z" fill="#015AA2"/>
<path opacity="0.5" fill-rule="evenodd" clip-rule="evenodd" d="M44.6665 86.3334C44.6665 84.0322 46.532 82.1667 48.8332 82.1667H82.1665C84.4677 82.1667 86.3332 84.0322 86.3332 86.3334C86.3332 88.6346 84.4677 90.5 82.1665 90.5H48.8332C46.532 90.5 44.6665 88.6346 44.6665 86.3334Z" fill="#015AA2"/>
</g>
<defs>
<filter id="filter0_d_2490_6536" x="37.9412" y="65.5946" width="181.144" height="128.349" filterUnits="userSpaceOnUse" color-interpolation-filters="sRGB">
<feFlood flood-opacity="0" result="BackgroundImageFix"/>
<feColorMatrix in="SourceAlpha" type="matrix" values="0 0 0 0 0 0 0 0 0 0 0 0 0 0 0 0 0 0 127 0" result="hardAlpha"/>
<feOffset dy="4.10204"/>
<feGaussianBlur stdDeviation="6.15306"/>
<feComposite in2="hardAlpha" operator="out"/>
<feColorMatrix type="matrix" values="0 0 0 0 0.551172 0 0 0 0 0.551172 0 0 0 0 0.551172 0 0 0 0.25 0"/>
<feBlend mode="normal" in2="BackgroundImageFix" result="effect1_dropShadow_2490_6536"/>
<feBlend mode="normal" in="SourceGraphic" in2="effect1_dropShadow_2490_6536" result="shape"/>
</filter>
<filter id="filter1_d_2490_6536" x="33.7569" y="53.1465" width="189.51" height="157.395" filterUnits="userSpaceOnUse" color-interpolation-filters="sRGB">
<feFlood flood-opacity="0" result="BackgroundImageFix"/>
<feColorMatrix in="SourceAlpha" type="matrix" values="0 0 0 0 0 0 0 0 0 0 0 0 0 0 0 0 0 0 127 0" result="hardAlpha"/>
<feOffset dy="4.10204"/>
<feGaussianBlur stdDeviation="6.15306"/>
<feComposite in2="hardAlpha" operator="out"/>
<feColorMatrix type="matrix" values="0 0 0 0 0.551172 0 0 0 0 0.551172 0 0 0 0 0.551172 0 0 0 0.25 0"/>
<feBlend mode="normal" in2="BackgroundImageFix" result="effect1_dropShadow_2490_6536"/>
<feBlend mode="normal" in="SourceGraphic" in2="effect1_dropShadow_2490_6536" result="shape"/>
</filter>
<filter id="filter2_d_2490_6536" x="92.0376" y="73.9627" width="58.2851" height="57.8079" filterUnits="userSpaceOnUse" color-interpolation-filters="sRGB">
<feFlood flood-opacity="0" result="BackgroundImageFix"/>
<feColorMatrix in="SourceAlpha" type="matrix" values="0 0 0 0 0 0 0 0 0 0 0 0 0 0 0 0 0 0 127 0" result="hardAlpha"/>
<feOffset dy="4.10204"/>
<feGaussianBlur stdDeviation="6.15306"/>
<feComposite in2="hardAlpha" operator="out"/>
<feColorMatrix type="matrix" values="0 0 0 0 0.551172 0 0 0 0 0.551172 0 0 0 0 0.551172 0 0 0 0.25 0"/>
<feBlend mode="normal" in2="BackgroundImageFix" result="effect1_dropShadow_2490_6536"/>
<feBlend mode="normal" in="SourceGraphic" in2="effect1_dropShadow_2490_6536" result="shape"/>
</filter>
<filter id="filter3_d_2490_6536" x="32.3604" y="73.9626" width="66.279" height="66.2789" filterUnits="userSpaceOnUse" color-interpolation-filters="sRGB">
<feFlood flood-opacity="0" result="BackgroundImageFix"/>
<feColorMatrix in="SourceAlpha" type="matrix" values="0 0 0 0 0 0 0 0 0 0 0 0 0 0 0 0 0 0 127 0" result="hardAlpha"/>
<feOffset dy="4.10204"/>
<feGaussianBlur stdDeviation="6.15306"/>
<feComposite in2="hardAlpha" operator="out"/>
<feColorMatrix type="matrix" values="0 0 0 0 0.551172 0 0 0 0 0.551172 0 0 0 0 0.551172 0 0 0 0.25 0"/>
<feBlend mode="normal" in2="BackgroundImageFix" result="effect1_dropShadow_2490_6536"/>
<feBlend mode="normal" in="SourceGraphic" in2="effect1_dropShadow_2490_6536" result="shape"/>
</filter>
<linearGradient id="paint0_linear_2490_6536" x1="128" y1="0" x2="128" y2="256" gradientUnits="userSpaceOnUse">
<stop stop-color="#F5F6F7"/>
<stop offset="1" stop-color="#EBECED"/>
</linearGradient>
</defs>
</svg>
